<svg width="30" height="30" viewBox="0 0 30 30" fill="none" xmlns="http://www.w3.org/2000/svg">
<path d="M23.6577 22.3833H22.1128L22.12 21.4791C22.12 21.0773 22.4474 20.7486 22.8477 20.7486H22.9462C23.3471 20.7486 23.6755 21.0773 23.6755 21.4791L23.6577 22.3833ZM17.8638 20.4457C17.4719 20.4457 17.1514 20.7111 17.1514 21.036V25.4333C17.1514 25.7576 17.4719 26.0223 17.8638 26.0223C18.2572 26.0223 18.578 25.7576 18.578 25.4333V21.036C18.578 20.7108 18.2572 20.4457 17.8638 20.4457ZM27.2728 17.986V26.3514C27.2728 28.3579 25.5459 29.9999 23.4356 29.9999H7.65571C5.54449 29.9999 3.81824 28.3579 3.81824 26.3514V17.986C3.81824 15.9794 5.54449 14.3372 7.65571 14.3372H23.4356C25.5459 14.3372 27.2728 15.9794 27.2728 17.986ZM8.70835 27.2596L8.7071 18.4477L10.6632 18.4483V17.1426L5.4488 17.1348V18.4184L7.07654 18.4231V27.2596H8.70835ZM14.572 19.7603H12.9411V24.4658C12.9411 25.1465 12.9821 25.4869 12.9386 25.607C12.806 25.9719 12.21 26.3592 11.9776 25.6464C11.9382 25.5216 11.9729 25.145 11.9723 24.4983L11.9657 19.7603H10.3439L10.3489 24.4236C10.3502 25.1383 10.333 25.6716 10.3546 25.9139C10.3943 26.3416 10.3802 26.8405 10.7739 27.1251C11.5076 27.658 12.9139 27.0456 13.2657 26.2842L13.2626 27.2558L14.5723 27.2574V19.7603H14.572ZM19.7892 25.1487L19.7858 21.2324C19.7845 19.7398 18.6765 18.8457 17.1723 20.0534L17.1789 17.1417L15.5496 17.1442L15.5418 27.1944L16.8812 27.1745L17.0031 26.5486C18.7156 28.1316 19.7917 27.0472 19.7892 25.1487ZM24.8932 24.6297L23.6702 24.6363C23.6695 24.6852 23.668 24.7416 23.6674 24.803V25.4907C23.6674 25.8585 23.3656 26.1582 22.9991 26.1582H22.7595C22.3924 26.1582 22.0909 25.8585 22.0909 25.4907V25.4144V24.658V23.682H24.8911V22.62C24.8911 21.8437 24.8714 21.0678 24.8076 20.6241C24.6074 19.2204 22.6522 18.9976 21.6646 19.7162C21.3544 19.9405 21.1177 20.2409 20.9801 20.6446C20.8409 21.0483 20.7721 21.5998 20.7721 22.3004V24.6354C20.7724 28.5174 25.4515 27.9687 24.8932 24.6297ZM18.6206 11.9518C18.7047 12.1579 18.8354 12.3249 19.0127 12.451C19.1878 12.5751 19.4121 12.6375 19.6801 12.6375C19.9153 12.6375 20.1235 12.5736 20.3049 12.4415C20.4857 12.3101 20.638 12.1138 20.7621 11.8519L20.7315 12.4967H22.5494V4.70581H21.1183V10.7693C21.1183 11.0977 20.85 11.3665 20.5219 11.3665C20.1958 11.3665 19.9265 11.0977 19.9265 10.7693V4.70581H18.4329V9.96064C18.4329 10.63 18.4448 11.0763 18.4645 11.3026C18.4855 11.5273 18.5364 11.7428 18.6206 11.9518ZM13.1116 7.55162C13.1116 6.80377 13.1735 6.21979 13.2964 5.79875C13.4202 5.37929 13.6426 5.04207 13.9647 4.78775C14.2858 4.53216 14.6971 4.40421 15.1971 4.40421C15.6178 4.40421 15.978 4.48741 16.2792 4.65034C16.5816 4.81422 16.8146 5.02695 16.9766 5.28947C17.1414 5.55293 17.2533 5.82365 17.313 6.10067C17.374 6.38147 17.404 6.80503 17.404 7.3764V9.34673C17.404 10.0694 17.3753 10.601 17.3196 10.9386C17.2643 11.277 17.1454 11.5909 16.9615 11.8853C16.7798 12.1765 16.5456 12.3942 16.2617 12.5332C15.9746 12.6735 15.6462 12.7422 15.2753 12.7422C14.861 12.7422 14.5119 12.6845 14.2242 12.5641C13.9356 12.4444 13.7126 12.2638 13.5538 12.0239C13.3933 11.7838 13.2804 11.4913 13.2123 11.1503C13.1438 10.8097 13.1112 10.2972 13.1112 9.61429V7.55162H13.1116ZM14.5354 10.6464C14.5354 11.0876 14.8613 11.4478 15.2581 11.4478C15.6553 11.4478 15.9796 11.0876 15.9796 10.6464V6.49902C15.9796 6.05844 15.6553 5.69822 15.2581 5.69822C14.8613 5.69822 14.5354 6.05844 14.5354 6.49902V10.6464ZM9.50424 12.7406H11.2192L11.2211 6.76532L13.2476 1.64663H11.3719L10.2945 5.44862L9.20184 1.63623H7.34549L9.50143 6.76816L9.50424 12.7406Z" fill="black"/>
</svg>
